<?xml version="1.0" standalone="no"?>
<!DOCTYPE svg PUBLIC "-//W3C//DTD SVG 20010904//EN"
 "http://www.w3.org/TR/2001/REC-SVG-20010904/DTD/svg10.dtd">
<svg version="1.0" xmlns="http://www.w3.org/2000/svg"
 width="1043.000000pt" height="287.000000pt" viewBox="0 0 1043.000000 287.000000"
 preserveAspectRatio="xMidYMid meet">

<g transform="translate(0.000000,287.000000) scale(0.100000,-0.100000)"
fill="#000000" stroke="none">
<path d="M7820 2851 c-589 -125 -867 -801 -535 -1301 63 -94 194 -216 289
-267 81 -44 203 -88 274 -99 l42 -7 0 262 0 261 -59 0 c-70 0 -94 15 -152 101
-55 82 -71 131 -72 219 0 164 93 297 254 363 l54 22 1223 3 1222 3 0 229 0
230 -1227 -1 c-1143 0 -1234 -2 -1313 -18z"/>
<path d="M1300 2843 c-330 -24 -646 -170 -884 -409 -214 -213 -343 -466 -397
-774 -19 -109 -16 -383 5 -500 112 -618 611 -1081 1238 -1149 61 -7 441 -11
1023 -11 l925 0 0 270 0 269 -967 3 c-967 4 -968 4 -1048 26 -374 104 -624
410 -651 796 -19 264 69 499 256 686 155 154 314 230 532 250 71 7 359 10 768
8 l655 -3 3 -87 3 -88 214 0 215 0 0 360 0 360 -922 -2 c-508 -1 -943 -3 -968
-5z"/>
<path d="M3570 2025 l0 -825 230 0 230 0 0 556 0 555 738 -4 c655 -3 744 -5
802 -21 141 -37 239 -84 340 -161 245 -190 365 -484 330 -806 -40 -364 -293
-657 -650 -751 -85 -22 -88 -22 -1052 -25 l-968 -4 0 -270 0 -270 988 4 c1098
3 1052 1 1271 73 482 161 846 582 937 1084 21 118 24 392 5 500 -37 214 -104
384 -216 555 -199 301 -503 513 -850 593 -165 39 -266 42 -1216 42 l-919 0 0
-825z"/>
<path d="M9610 1433 l0 -263 94 0 c111 0 127 -9 195 -113 56 -87 78 -177 63
-260 -32 -173 -152 -295 -322 -327 -33 -6 -485 -10 -1241 -10 l-1189 0 0 -230
0 -230 1253 2 1252 3 79 23 c298 84 528 314 607 607 31 114 32 308 2 420 -46
169 -118 291 -246 412 -130 122 -303 203 -475 221 l-72 8 0 -263z"/>
</g>
</svg>
